<?xml version="1.0" encoding="UTF-8"?>
<svg id="Layer_1" data-name="Layer 1" xmlns="http://www.w3.org/2000/svg" viewBox="0 0 2000 2000">
  <defs>
    <style>
      .cls-1 {
        fill: #ff2f06;
      }

      .cls-2 {
        fill: #041a51;
      }
    </style>
  </defs>
  <g id="ICON">
    <path class="cls-1" d="M417.35,588.62s317.19-218.36,698.75-248.24c0,0,372.36-36.78,374.66,278.12,0,0-.67,219.08-317.19,324.09,0,0,68.96,3.45,142.51-9.19,0,0-110.33,187.33,149.4,352.82,0,0-688.4-77-747.01-557.39,0,0,297.66,227.55,455.1,56.31,42.09-56.22,86.77-247.14-202.27-282.72-63.11-6.23-282.34-17.51-553.94,86.19Z"/>
    <path class="cls-2" d="M689.15,742.95c-102.38,75.56-334.53,538.71,81.21,1008.28-61.77-142.6-37.64-559.02,315.85-567.54,0,0-334.24-65.32-397.07-440.74Z"/>
  </g>
</svg>